<svg width="37" height="36" viewBox="0 0 37 36" fill="none" xmlns="http://www.w3.org/2000/svg">
<path d="M7.35498 8.75504C7.35498 9.90504 8.29498 10.845 9.44498 10.845C10.595 10.845 11.535 9.90504 11.535 8.75504C11.535 7.60504 10.595 6.66504 9.44498 6.66504C8.29498 6.67504 7.35498 7.60504 7.35498 8.75504Z" fill="#E3431F"/>
<path d="M10.035 18.045C10.035 22.885 13.975 26.815 18.805 26.815C23.645 26.815 27.575 22.875 27.575 18.045C27.575 13.205 23.635 9.27502 18.805 9.27502C13.975 9.27502 10.035 13.205 10.035 18.045ZM24.425 18.045C24.425 21.145 21.905 23.665 18.805 23.665C15.705 23.665 13.185 21.145 13.185 18.045C13.185 14.945 15.705 12.425 18.805 12.425C21.905 12.425 24.425 14.945 24.425 18.045Z" fill="#E3431F"/>
<path d="M36.625 11.075L36.625 25.295C36.625 31.195 31.825 35.995 25.925 35.995L11.695 35.995C5.79499 35.995 0.994995 31.195 0.994995 25.295L0.994995 11.075C0.994995 5.175 5.79499 0.375 11.695 0.375L25.915 0.375C31.825 0.375 36.625 5.175 36.625 11.075ZM4.345 25.305C4.345 29.355 7.64499 32.655 11.695 32.655L25.915 32.655C29.965 32.655 33.265 29.355 33.265 25.305L33.265 11.075C33.265 7.025 29.965 3.725 25.915 3.725L11.695 3.725C7.64499 3.725 4.345 7.025 4.345 11.075L4.345 25.305Z" fill="#E3431F"/>
</svg>
