<svg width="467" height="215" viewBox="0 0 467 215" fill="none" xmlns="http://www.w3.org/2000/svg">
<path d="M175.994 77.4724L167.898 99.8921H110.377L110.4 98.4993H112.144C117.013 98.4993 120.942 94.6042 121.032 89.7693V12.863C120.942 8.02808 117.001 4.13292 112.132 4.13292H110.377L110.355 2.7402H140.723L140.7 4.13292H138.945C134.088 4.13292 130.147 8.02808 130.057 12.863V95.6459H149.951C164.66 95.6459 170.31 88.0369 174.579 77.4724H175.994Z" fill="#010001"/>
<path d="M283.631 51.3161C283.631 81.628 263.261 101.84 233.753 101.84C204.245 101.84 183.864 81.628 183.864 51.3161C183.864 21.0043 204.245 0.792633 233.753 0.792633C263.261 0.792633 283.631 21.0043 283.631 51.3161ZM272.988 51.3161C272.988 23.4954 257.283 4.94818 233.742 4.94818C210.19 4.94818 194.496 23.4954 194.496 51.3161C194.496 79.1369 210.19 97.6841 233.742 97.6841C257.294 97.6728 272.988 79.1369 272.988 51.3161Z" fill="#010001"/>
<path d="M322.243 2.7402C341.696 2.7402 352.374 12.0364 352.442 25.9412C352.385 37.7058 344.889 44.7941 337.054 47.0247C351.83 49.2327 360.855 60.0576 360.832 73.7924C360.832 89.4749 349.169 99.8808 328.505 99.8808H294.683L294.705 98.4993H296.46C301.284 98.4993 305.202 94.6495 305.349 89.8599V12.7271C305.349 7.94878 301.284 4.11028 296.426 4.11028H294.694L294.671 2.72887L322.243 2.7402ZM328.007 94.8307C342.24 94.8986 350.426 86.8479 350.415 72.8186C350.426 52.0182 332.524 48.5533 319.095 48.576L319.073 47.2625C327.531 47.2964 341.957 44.7941 342.013 26.9489C341.957 14.403 334.88 7.19017 321.722 7.20149H314.385V94.8307H328.007Z" fill="#010001"/>
<path d="M453.24 89.7692C456.036 95.9403 461.177 98.4993 465.423 98.4993H466.59V99.8921H435.338V98.522H436.561C440.139 98.522 443.853 95.3628 441.837 89.8145L432.96 66.1833H395.571L386.275 89.9051C384.327 95.4081 388.03 98.5333 391.586 98.5333H392.82V99.9034H364.874V98.5107H366.131C370.343 98.5107 375.473 95.9516 378.281 89.7806L409.748 15.0937C409.748 15.0937 414.888 3.84982 414.888 0.803917H416.145L453.24 89.7692ZM431.386 62.0051L414.651 17.4602L397.202 62.0051H431.386Z" fill="#010001"/>
<path d="M30.5836 212.33H0.215118L0.237752 210.949H2.00415C6.86174 210.949 10.8022 207.054 10.8928 202.219V125.222C10.7682 120.421 6.8391 116.56 2.00415 116.56H0.237752L0.215118 115.167H30.5723L30.5496 116.56H28.7945C23.9709 116.56 20.0418 120.409 19.9059 125.199V202.219C19.9965 207.054 23.9369 210.949 28.7945 210.949H30.5496L30.5836 212.33Z" fill="#010001"/>
<path d="M97.2198 115.201C114.963 115.201 125.833 125.38 125.833 142.003C125.833 163.154 102.881 174.42 85.4665 165.237L85.4552 163.924C85.4552 163.924 108.282 168.85 114.533 148.966C115.156 147.019 115.507 143.667 115.427 140.599C115.076 127.86 108.52 119.356 96.7216 119.356H80.7221V202.23C80.8127 207.065 84.7531 210.96 89.6107 210.96H91.3658L91.3884 212.341H61.0087L61.0313 210.96H62.7751C67.6327 210.96 71.5844 207.065 71.675 202.23V124.565C71.2221 120.081 67.4402 116.56 62.8317 116.56H61.0766L61.0539 115.19L97.2198 115.201Z" fill="#010001"/>
<path d="M197.712 171.409C203.26 176.527 204.676 182.72 204.676 188.325C204.676 203.679 194.655 214.278 178.689 214.278C171.884 214.278 160.64 212.33 155.194 206.691C154.152 202.411 154.684 193.568 156.802 187.34H158.013C156.621 201.641 165.679 210.79 178.021 210.111C188.155 209.545 196.625 202.604 196.625 191.518C196.625 186.095 194.643 181.803 191.179 178.587L164.603 153.903C158.987 148.785 157.074 142.082 157.074 136.703C157.074 125.007 165.645 113.253 181.463 113.253C185.098 113.253 189.684 113.876 193.364 114.68H198.867V116.333V131.71H197.531C197.553 122.833 190.556 117.42 181.916 117.42C171.692 117.42 164.852 124.916 164.852 133.386C164.852 136.998 166.064 142.127 170.446 146.181L197.712 171.409Z" fill="#010001"/>
<path d="M328.505 115.19V116.571H326.24C322.334 116.571 319.163 119.3 318.914 123.127V178.01C318.914 199.773 303.956 214.278 281.503 214.278C258.415 214.278 243.016 199.863 243.016 178.248V123.444C242.936 119.447 239.687 116.571 235.678 116.571H233.414V115.19H261.597V116.571H259.343C255.403 116.571 252.187 119.345 252.029 123.229V176.21C252.029 196.433 263.816 209.907 281.491 209.907C300.027 209.907 312.392 197.146 312.426 178.01V123.263C312.256 119.368 309.04 116.582 305.1 116.582H302.835V115.201H328.505V115.19Z" fill="#010001"/>
<path d="M454.406 202.253C455.119 207.733 459.558 210.949 464.517 210.949H466.725V212.33H436.549V211.017H438.712C441.701 211.005 444.385 208.084 444.113 205.095L437.829 135.254L408.661 200.101C408.661 200.101 404.788 208.526 403.905 214.278H402.592L367.094 137.27L361.002 205.095C360.73 208.084 363.425 211.017 366.414 211.017H368.577V212.33H341.696V210.949H343.904C348.864 210.949 353.314 207.744 354.027 202.253L364.455 113.242H365.746L404.471 196.987L442.335 113.287H443.604L454.406 202.253Z" fill="#010001"/>
<path d="M96.0082 98.556H94.2985C90.4486 98.556 87.0743 96.5291 86.5308 92.2716H86.5535V66.7042C86.5535 50.4443 73.9849 41.9406 60.4198 41.9406C50.297 41.9406 39.1098 42.6993 38.9853 53.5468C38.7928 70.2936 64.6207 59.7065 64.6207 68.6517C64.6207 78.4462 36.732 75.004 36.732 90.1882C36.732 98.5899 45.0205 102.247 52.7768 102.247C61.8692 102.247 70.4181 98.6013 77.2233 86.8479L77.4724 92.1245L77.3365 100.096H96.0649H96.0875L96.0082 98.556ZM77.3139 72.8639C77.3139 87.1876 67.6213 99.6769 56.9663 99.6769C51.0444 99.6769 47.0586 95.7931 47.0586 89.8712C47.0586 77.1667 67.1004 77.8461 67.1004 68.5838C67.1004 58.2458 43.9448 65.1756 43.9448 53.6147C43.9448 44.4204 52.6635 43.6278 60.8501 43.6278C69.3651 43.6278 77.3252 47.5569 77.3252 62.2995V72.8639H77.3139Z" fill="#010001"/>
<path d="M19.7021 0V13.214V89.724C19.7927 94.5589 23.7331 98.4541 28.5907 98.4541H30.3458L30.3684 99.8468H0L0.0226337 98.4541H1.77769C6.63529 98.4541 10.5757 94.5589 10.655 89.724V12.7384C10.5418 7.92615 6.62397 4.06498 1.77769 4.06498H0.0226337L0 2.67226L19.7021 0Z" fill="#010001"/>
<path d="M237.852 48.1004C235.927 46.1868 235.135 44.477 235.135 43.8769C234.874 43.6165 234.455 43.6165 234.206 43.8769C234.206 44.4091 233.414 46.1868 231.489 48.1004C229.564 50.0253 227.786 50.8179 227.254 50.8179C226.993 51.0784 226.993 51.486 227.254 51.7464C227.775 51.7464 229.564 52.539 231.489 54.464C233.402 56.3776 234.206 58.1213 234.206 58.6988C234.455 58.9592 234.874 58.9592 235.135 58.6988C235.135 58.1326 235.927 56.3889 237.852 54.464C239.766 52.539 241.589 51.7464 242.087 51.7464C242.336 51.486 242.336 51.0784 242.087 50.8179C241.442 50.8179 239.766 50.0253 237.852 48.1004Z" fill="#010001"/>
</svg>
