<svg width="36" height="36" viewBox="0 0 36 36" fill="none" xmlns="http://www.w3.org/2000/svg">
<path d="M0 35.63L2.55 26.1C1.1 23.49 0.34 20.57 0.34 17.6C0.35 7.89 8.24 0 17.94 0C27.64 0 35.54 7.89 35.54 17.6C35.54 27.3 27.65 35.2 17.94 35.2C15.03 35.2 12.15 34.46 9.58 33.07L0 35.63ZM10.06 29.49L10.66 29.85C12.87 31.17 15.39 31.87 17.94 31.87C25.81 31.87 32.21 25.47 32.21 17.6C32.21 9.73 25.81 3.33 17.94 3.33C10.07 3.33 3.67 9.73 3.67 17.6C3.67 20.2 4.39 22.76 5.76 25L6.13 25.61L4.7 30.92L10.06 29.49Z" fill="#E3431F"/>
<path fill-rule="evenodd" clip-rule="evenodd" d="M24.49 20.04C23.77 19.61 22.82 19.12 21.97 19.47C21.32 19.74 20.9 20.76 20.47 21.29C20.25 21.56 19.99 21.6 19.66 21.47C17.2 20.49 15.32 18.85 13.96 16.59C13.73 16.24 13.77 15.96 14.05 15.64C14.46 15.16 14.97 14.61 15.08 13.96C15.19 13.31 14.89 12.55 14.62 11.97C14.28 11.23 13.89 10.18 13.15 9.75999C12.47 9.37999 11.57 9.58999 10.97 10.08C9.91996 10.93 9.41996 12.27 9.42996 13.59C9.42996 13.97 9.47996 14.34 9.56996 14.7C9.77996 15.57 10.19 16.39 10.64 17.16C10.98 17.74 11.35 18.31 11.76 18.86C13.07 20.65 14.71 22.2 16.6 23.36C17.55 23.94 18.56 24.45 19.62 24.8C20.8 25.19 21.86 25.6 23.14 25.36C24.48 25.11 25.8 24.28 26.33 22.99C26.49 22.61 26.57 22.18 26.48 21.78C26.29 20.94 25.16 20.45 24.49 20.04Z" fill="#E3431F"/>
</svg>
